<svg xmlns="http://www.w3.org/2000/svg" width="15.421" height="15.414" viewBox="0 0 15.421 15.414"><path d="M97.3,25.678a4.088,4.088,0,0,0-1.247-2.632A4.271,4.271,0,0,0,93.223,21.9a55.694,55.694,0,0,0-7.628.085,3.891,3.891,0,0,0-3.335,2.995,43.054,43.054,0,0,0-.08,8.656A3.9,3.9,0,0,0,85.277,37a45.653,45.653,0,0,0,8.536.057,3.908,3.908,0,0,0,3.378-3.083C97.544,32.623,97.42,26.893,97.3,25.678Zm-1.419,7.7a2.609,2.609,0,0,1-2.454,2.329A45.875,45.875,0,0,1,85.47,35.6a2.527,2.527,0,0,1-1.917-2.179,51.474,51.474,0,0,1,0-7.782,2.605,2.605,0,0,1,2.444-2.319,54.384,54.384,0,0,1,7.59.031,2.611,2.611,0,0,1,2.325,2.459A55.311,55.311,0,0,1,95.877,33.383Zm-6.164-7.817a3.954,3.954,0,1,0,3.951,3.956A3.954,3.954,0,0,0,89.713,25.565Zm-.027,6.508a2.557,2.557,0,1,1,2.579-2.533A2.557,2.557,0,0,1,89.686,32.073Zm5.06-6.657a.926.926,0,1,1-.923-.928A.926.926,0,0,1,94.747,25.416Z" transform="translate(-82.002 -21.811)" fill="#00537b"/></svg>