<svg xmlns="http://www.w3.org/2000/svg" width="20.623" height="20.623" viewBox="0 0 20.623 20.623"><path d="M17.535,5.247A10.223,10.223,0,0,0,1.45,17.579L0,22.873l5.418-1.422A10.189,10.189,0,0,0,10.3,22.694h0a10.318,10.318,0,0,0,10.316-10.22,10.26,10.26,0,0,0-3.089-7.227ZM10.307,20.972A8.479,8.479,0,0,1,5.98,19.789L5.671,19.6l-3.213.842.856-3.135-.2-.322A8.511,8.511,0,1,1,18.9,12.474a8.589,8.589,0,0,1-8.59,8.5Zm4.659-6.362c-.253-.129-1.51-.746-1.745-.829s-.405-.129-.575.129-.658.829-.81,1-.3.193-.552.064A6.951,6.951,0,0,1,7.807,11.94c-.262-.451.262-.419.75-1.395a.473.473,0,0,0-.023-.447c-.064-.129-.575-1.386-.787-1.9s-.419-.428-.575-.437-.318-.009-.488-.009A.946.946,0,0,0,6,8.073,2.869,2.869,0,0,0,5.11,10.2a5,5,0,0,0,1.04,2.642A11.411,11.411,0,0,0,10.514,16.7a5,5,0,0,0,3.066.64A2.615,2.615,0,0,0,15.3,16.129a2.136,2.136,0,0,0,.147-1.215C15.389,14.8,15.219,14.735,14.966,14.61Z" transform="translate(0 -2.25)" fill="#00537b"/></svg>