<svg xmlns="http://www.w3.org/2000/svg" width="103.238" height="103.238" viewBox="0 0 103.238 103.238">
  <g id="Grupo_513" data-name="Grupo 513" transform="translate(-1690.881 -1154.881)">
    <rect id="Ret창ngulo_57" data-name="Ret창ngulo 57" width="73" height="73" rx="16" transform="translate(1690.881 1206.5) rotate(-45)" fill="#2ed594"/>
    <rect id="Ret창ngulo_58" data-name="Ret창ngulo 58" width="73" height="73" rx="16" transform="matrix(0.966, -0.259, 0.259, 0.966, 1697.797, 1180.691)" fill="#2ed594" opacity="0.72"/>
    <path id="Icon_awesome-whatsapp" data-name="Icon awesome-whatsapp" d="M32.609,7.823A19.011,19.011,0,0,0,2.7,30.758L0,40.6l10.076-2.645a18.947,18.947,0,0,0,9.083,2.311h.009A19.188,19.188,0,0,0,38.353,21.264,19.08,19.08,0,0,0,32.609,7.823ZM19.168,37.067a15.769,15.769,0,0,1-8.047-2.2l-.574-.342L4.572,36.091l1.592-5.83-.377-.6a15.827,15.827,0,1,1,29.355-8.4,15.973,15.973,0,0,1-15.975,15.8Zm8.664-11.831c-.471-.24-2.808-1.387-3.245-1.541s-.753-.24-1.07.24S22.293,25.476,22.01,25.8s-.556.36-1.027.12c-2.791-1.4-4.623-2.491-6.464-5.65-.488-.839.488-.779,1.4-2.594a.88.88,0,0,0-.043-.83c-.12-.24-1.07-2.577-1.464-3.527-.385-.925-.779-.8-1.07-.813-.274-.017-.591-.017-.907-.017a1.759,1.759,0,0,0-1.267.591A5.336,5.336,0,0,0,9.5,17.043a9.3,9.3,0,0,0,1.935,4.914c.24.317,3.347,5.111,8.116,7.174,3.013,1.3,4.195,1.413,5.7,1.19.916-.137,2.808-1.147,3.2-2.26a3.972,3.972,0,0,0,.274-2.26C28.619,25.587,28.3,25.467,27.832,25.236Z" transform="translate(1723.323 1185.073)" fill="#fff"/>
  </g>
</svg>
