<svg xmlns="http://www.w3.org/2000/svg" width="9.437" height="18.073" viewBox="0 0 9.437 18.073"><g transform="translate(-788 -2180)"><path d="M35.91,24.342c.559-.019,1.118,0,1.68,0h.232V21.425c-.3-.031-.613-.073-.925-.088-.574-.026-1.149-.055-1.725-.041a4.222,4.222,0,0,0-2.433.752,3.639,3.639,0,0,0-1.462,2.431,8.565,8.565,0,0,0-.1,1.25c-.016.654,0,1.306,0,1.961v.244H28.385v3.253h2.771v8.178h3.386V31.2H37.3c.142-1.082.28-2.153.426-3.269h-.621c-.785,0-2.588,0-2.588,0s.007-1.611.027-2.311C34.574,24.662,35.142,24.369,35.91,24.342Z" transform="translate(759.615 2158.708)" fill="#b7b7b7" fill-rule="evenodd"/></g></svg>