<svg xmlns="http://www.w3.org/2000/svg" width="217.012" height="57.066" viewBox="0 0 217.012 57.066"><g transform="translate(-405.988 -28.967)"><g transform="translate(-224.218 -783.876)"><g transform="translate(630.206 812.843)"><path d="M636.762,829.635l12.1-12.247a2.042,2.042,0,0,1,3.258.471c2.659,5.076,7.884,18.214,4.232,38.169a2.051,2.051,0,0,1-3.731.768l-16.118-24.6A2.044,2.044,0,0,1,636.762,829.635Z" transform="translate(-628.03 -811.408)" fill="#3cbd01"/><path d="M674.276,829.635l-12.1-12.247a2.041,2.041,0,0,0-3.256.471c-2.66,5.076-7.884,18.214-4.232,38.169a2.05,2.05,0,0,0,3.73.768l16.119-24.6A2.044,2.044,0,0,0,674.276,829.635Z" transform="translate(-621.735 -811.408)" fill="#3cbd01"/><path d="M635.108,831.745l17.438,21.488a1.265,1.265,0,0,1-1.593,1.905l-10.618-5.853a2.653,2.653,0,0,1-1.372-2.323v-4.487h0a1.96,1.96,0,0,0-1.96-1.96h-.9s-6.611.783-5.837-5.6a6.154,6.154,0,0,1,1.754-3.312A2.038,2.038,0,0,1,635.108,831.745Z" transform="translate(-630.206 -806.234)" fill="#3cbd01"/><path d="M676.2,831.745l-17.437,21.488a1.266,1.266,0,0,0,1.594,1.905l10.616-5.853a2.653,2.653,0,0,0,1.372-2.323v-4.487h0a1.96,1.96,0,0,1,1.961-1.96h.9s6.611.783,5.837-5.6a6.157,6.157,0,0,0-1.752-3.312A2.04,2.04,0,0,0,676.2,831.745Z" transform="translate(-619.896 -806.234)" fill="#3cbd01"/><path d="M639.317,849.168l7.527,4.116a1.8,1.8,0,0,1-.864,3.383h-.987s-8.37,1.141-8.37-5.512v-.39A1.82,1.82,0,0,1,639.317,849.168Z" transform="translate(-627.865 -799.676)" fill="#3cbd01"/><path d="M668.9,849.168l-7.526,4.116a1.8,1.8,0,0,0,.864,3.383h.987s8.37,1.141,8.37-5.512v-.39A1.82,1.82,0,0,0,668.9,849.168Z" transform="translate(-619.182 -799.676)" fill="#3cbd01"/><path d="M648.879,816.941a16.719,16.719,0,0,1,3.926,6.069,1.431,1.431,0,0,0,2.638.048,16.933,16.933,0,0,1,4.214-6.05,1.435,1.435,0,0,0-.053-2.229,8.365,8.365,0,0,0-10.612-.051A1.435,1.435,0,0,0,648.879,816.941Z" transform="translate(-623.565 -812.844)" fill="#3cbd01"/></g><g transform="translate(703.587 820.118)"><g transform="translate(0.247)"><path d="M684.156,839.44c0-4.231,3.367-6.522,11.311-7.359-.12-1.758-1-2.9-3.176-2.9a11.046,11.046,0,0,0-5.316,1.814l-2.115-3.906a16.408,16.408,0,0,1,8.579-2.644c5.134,0,7.978,2.934,7.978,9.088v11.482h-4.854l-.43-2.057h-.147a8.812,8.812,0,0,1-5.842,2.543A5.784,5.784,0,0,1,684.156,839.44Zm11.311-.263v-3.509c-4.233.572-5.613,1.781-5.613,3.3,0,1.294.89,1.927,2.3,1.927A4.533,4.533,0,0,0,695.467,839.176Z" transform="translate(-684.156 -815.888)" fill="#00537b"/><path d="M700.464,824.927h4.856l.43,2.542h.146a9.206,9.206,0,0,1,6.453-3.028c4.369,0,6.231,3.082,6.231,8.1v12.468h-5.95V833.3c0-2.889-.778-3.794-2.5-3.794-1.494,0-2.409.7-3.718,1.953v13.548h-5.952Z" transform="translate(-678.208 -815.888)" fill="#00537b"/><path d="M716.754,839.44c0-4.231,3.365-6.522,11.311-7.359-.12-1.758-1-2.9-3.177-2.9a11.046,11.046,0,0,0-5.314,1.814l-2.115-3.906a16.4,16.4,0,0,1,8.577-2.644c5.136,0,7.98,2.934,7.98,9.088v11.482H729.16l-.428-2.057h-.149a8.81,8.81,0,0,1-5.843,2.543A5.784,5.784,0,0,1,716.754,839.44Zm11.311-.263v-3.509c-4.233.572-5.615,1.781-5.615,3.3,0,1.294.891,1.927,2.305,1.927A4.535,4.535,0,0,0,728.065,839.176Z" transform="translate(-672.266 -815.888)" fill="#00537b"/><path d="M733.879,818.174h1.788v8.453l-.031,4.283c2.032-2.016,4.046-3.539,6.727-3.539,4.017,0,5.879,2.437,5.879,7.457V847.3h-1.791V835.064c0-4.123-1.3-6.081-4.429-6.081-2.315,0-3.992,1.223-6.356,3.651V847.3h-1.788Z" transform="translate(-666.019 -818.174)" fill="#00537b"/><path d="M749.029,821.09a1.628,1.628,0,0,1,3.255,0,1.628,1.628,0,0,1-3.255,0Zm.7,6.282h1.788v19.44h-1.788Z" transform="translate(-660.493 -817.689)" fill="#00537b"/><path d="M756.332,844.69V818.174h1.788v26.759c0,.867.356,1.272.842,1.272a3.039,3.039,0,0,0,.73-.082l.3,1.459a4.032,4.032,0,0,1-1.287.2C757.14,847.782,756.332,846.82,756.332,844.69Z" transform="translate(-657.83 -818.174)" fill="#00537b"/><path d="M762.174,837.614c0-6.275,3.982-10.243,8.622-10.243,2.332,0,3.92.883,5.863,2.39l-.1-3.572v-8.015h1.789V847.3h-1.513l-.194-2.517h-.089a9.149,9.149,0,0,1-6.341,3C765.34,847.782,762.174,844.171,762.174,837.614Zm14.387,5.376V831.46c-2.048-1.822-3.757-2.5-5.668-2.5-3.862,0-6.842,3.774-6.842,8.647,0,5.174,2.3,8.591,6.42,8.591C772.619,846.2,774.521,845.071,776.561,842.989Z" transform="translate(-655.699 -818.174)" fill="#00537b"/><path d="M778.476,840c0-4.319,3.9-6.376,12.542-7.332.056-2.987-.762-6.186-4.584-6.186a10.653,10.653,0,0,0-6.193,2.283l-.826-1.328a13.062,13.062,0,0,1,7.23-2.526c4.606,0,6.161,3.344,6.161,7.506v12.419h-1.514l-.194-2.525h-.089c-1.984,1.6-4.348,3.011-6.9,3.011C781.034,845.324,778.476,843.648,778.476,840Zm12.542.643v-6.614c-7.984.921-10.712,2.777-10.712,5.877,0,2.789,1.886,3.862,4.121,3.862S788.613,842.693,791.018,840.645Z" transform="translate(-649.753 -815.716)" fill="#00537b"/></g><g transform="translate(0 34.03)"><path d="M683.975,844.909h.442l.052.617h.019a2,2,0,0,1,1.4-.718c.858,0,1.251.536,1.251,1.593v2.63h-.53v-2.557c0-.827-.254-1.2-.862-1.2-.458,0-.783.24-1.245.708v3.049h-.53Z" transform="translate(-683.975 -842.489)" fill="#878787"/><path d="M689.67,846.977a1.975,1.975,0,0,1,1.825-2.169c1.011,0,1.609.722,1.609,1.917a1.9,1.9,0,0,1-.03.352H690.2a1.494,1.494,0,0,0,1.466,1.619,1.83,1.83,0,0,0,1.07-.348l.2.371a2.344,2.344,0,0,1-1.326.412A1.957,1.957,0,0,1,689.67,846.977Zm2.952-.3c0-.947-.426-1.434-1.122-1.434a1.407,1.407,0,0,0-1.3,1.434Z" transform="translate(-681.898 -842.489)" fill="#878787"/><path d="M695.228,849.851a1.229,1.229,0,0,1,.607-.966v-.033a.757.757,0,0,1-.363-.669.973.973,0,0,1,.452-.761v-.035a1.469,1.469,0,0,1-.531-1.119,1.44,1.44,0,0,1,1.5-1.459,1.562,1.562,0,0,1,.566.1h1.414v.426h-.9a1.277,1.277,0,0,1,.4.946,1.412,1.412,0,0,1-1.477,1.44,1.427,1.427,0,0,1-.647-.156.68.68,0,0,0-.3.543c0,.28.172.494.757.494h.845c.939,0,1.395.3,1.395.965,0,.736-.783,1.408-2.013,1.408C695.9,850.975,695.228,850.552,695.228,849.851Zm3.183-.216c0-.419-.308-.572-.894-.572h-.8a2.4,2.4,0,0,1-.523-.066.979.979,0,0,0-.482.785c0,.484.472.8,1.284.8C697.855,850.585,698.411,850.114,698.411,849.635Zm-.543-3.368a.98.98,0,1,0-1.954,0,.982.982,0,1,0,1.954,0Z" transform="translate(-679.87 -842.489)" fill="#878787"/><path d="M700.816,847.6a1.9,1.9,0,1,1,1.879,2.155A1.956,1.956,0,0,1,700.816,847.6Zm3.206,0c0-1.018-.553-1.719-1.327-1.719s-1.329.7-1.329,1.719.553,1.706,1.329,1.706S704.022,848.613,704.022,847.6Zm-1.795-3.109,1.178-1.378.379.352-1.277,1.294Z" transform="translate(-677.832 -843.109)" fill="#878787"/><path d="M706.746,846.977a1.977,1.977,0,0,1,1.927-2.169,1.731,1.731,0,0,1,1.209.494l-.289.358a1.308,1.308,0,0,0-.9-.4c-.8,0-1.4.7-1.4,1.719s.555,1.706,1.388,1.706a1.577,1.577,0,0,0,1.041-.445l.243.36a1.977,1.977,0,0,1-1.322.534A1.92,1.92,0,0,1,706.746,846.977Z" transform="translate(-675.669 -842.489)" fill="#878787"/><path d="M712.275,844.021a.41.41,0,0,1,.819,0,.41.41,0,0,1-.819,0Zm.136,1.317h.529v4.121h-.529Z" transform="translate(-673.652 -842.919)" fill="#878787"/><path d="M716.181,846.977a1.9,1.9,0,1,1,1.879,2.155A1.955,1.955,0,0,1,716.181,846.977Zm3.206,0c0-1.018-.553-1.719-1.327-1.719s-1.329.7-1.329,1.719.553,1.706,1.329,1.706S719.387,847.993,719.387,846.977Z" transform="translate(-672.228 -842.489)" fill="#878787"/><path d="M721.987,848.563l.276-.365a1.9,1.9,0,0,0,1.268.508c.6,0,.9-.338.9-.731,0-.475-.51-.682-.976-.852-.6-.218-1.275-.485-1.275-1.183,0-.625.5-1.131,1.373-1.131a2.013,2.013,0,0,1,1.226.442l-.263.357a1.548,1.548,0,0,0-.962-.374c-.586,0-.852.329-.852.676,0,.433.468.6.946.778.617.233,1.3.459,1.3,1.254,0,.644-.51,1.19-1.444,1.19A2.4,2.4,0,0,1,721.987,848.563Z" transform="translate(-670.11 -842.489)" fill="#878787"/><path d="M731.2,844.021a.411.411,0,0,1,.82,0,.411.411,0,0,1-.82,0Zm.136,1.317h.531v4.121h-.531Z" transform="translate(-666.75 -842.919)" fill="#878787"/><path d="M735.343,844.909h.442l.052.621h.02a1.867,1.867,0,0,1,1.294-.722,1.074,1.074,0,0,1,1.137.812,2,2,0,0,1,1.378-.812c.837,0,1.246.536,1.246,1.593v2.63h-.529v-2.557c0-.827-.27-1.2-.853-1.2a1.648,1.648,0,0,0-1.137.708v3.049h-.531v-2.557c0-.827-.269-1.2-.848-1.2a1.676,1.676,0,0,0-1.141.708v3.049h-.531Z" transform="translate(-665.238 -842.489)" fill="#878787"/><path d="M742.8,846.977a1.9,1.9,0,1,1,1.879,2.155A1.955,1.955,0,0,1,742.8,846.977Zm3.206,0c0-1.018-.553-1.719-1.327-1.719s-1.329.7-1.329,1.719.553,1.706,1.329,1.706S746,847.993,746,846.977Z" transform="translate(-662.52 -842.489)" fill="#878787"/><path d="M749.46,849.114h-.023l-.052.422h-.433v-6.111h.531v1.726l-.021.774a2.222,2.222,0,0,1,1.359-.611c1.086,0,1.646.826,1.646,2.1,0,1.4-.842,2.223-1.8,2.223A1.948,1.948,0,0,1,749.46,849.114Zm2.458-1.7c0-.962-.338-1.649-1.206-1.649a1.916,1.916,0,0,0-1.228.625V848.7a1.8,1.8,0,0,0,1.115.484C751.362,849.185,751.918,848.489,751.918,847.416Z" transform="translate(-660.274 -842.994)" fill="#878787"/><path d="M754.836,844.021a.411.411,0,0,1,.82,0,.41.41,0,0,1-.82,0Zm.136,1.317h.531v4.121h-.531Z" transform="translate(-658.128 -842.919)" fill="#878787"/><path d="M758.984,848.853v-5.429h.529V848.9c0,.2.085.282.188.282a.653.653,0,0,0,.153-.016l.078.414a.987.987,0,0,1-.334.052C759.179,849.636,758.984,849.373,758.984,848.853Z" transform="translate(-656.615 -842.994)" fill="#878787"/><path d="M762.981,844.021a.41.41,0,0,1,.819,0,.41.41,0,0,1-.819,0Zm.136,1.317h.53v4.121h-.53Z" transform="translate(-655.157 -842.919)" fill="#878787"/><path d="M766.923,848.6c0-.906.8-1.348,2.6-1.548,0-.584-.169-1.183-.913-1.183a2.275,2.275,0,0,0-1.275.465l-.221-.374a2.874,2.874,0,0,1,1.573-.536c.988,0,1.365.689,1.365,1.638v2.585h-.442l-.048-.516h-.023a2.3,2.3,0,0,1-1.414.617A1.1,1.1,0,0,1,766.923,848.6Zm2.6.1v-1.28c-1.548.182-2.07.546-2.07,1.144a.7.7,0,0,0,.8.742A1.95,1.95,0,0,0,769.524,848.707Zm-1.329-4.22,1.177-1.378.383.352-1.28,1.294Z" transform="translate(-653.72 -843.109)" fill="#878787"/><path d="M772.8,844.909h.442l.052.76h.019a1.428,1.428,0,0,1,1.174-.861.9.9,0,0,1,.423.085l-.108.471a.986.986,0,0,0-.386-.068c-.358,0-.787.268-1.086,1.009v2.727h-.53Z" transform="translate(-651.577 -842.489)" fill="#878787"/><path d="M777.333,844.021a.411.411,0,0,1,.82,0,.411.411,0,0,1-.82,0Zm.136,1.317H778v4.121h-.531Z" transform="translate(-649.922 -842.919)" fill="#878787"/><path d="M781.24,846.977a1.9,1.9,0,1,1,1.879,2.155A1.955,1.955,0,0,1,781.24,846.977Zm3.206,0c0-1.018-.553-1.719-1.326-1.719s-1.329.7-1.329,1.719.553,1.706,1.329,1.706S784.446,847.993,784.446,846.977Z" transform="translate(-648.497 -842.489)" fill="#878787"/><path d="M787.045,848.563l.277-.365a1.9,1.9,0,0,0,1.268.508c.6,0,.9-.338.9-.731,0-.475-.51-.682-.976-.852-.6-.218-1.275-.485-1.275-1.183,0-.625.5-1.131,1.373-1.131a2.016,2.016,0,0,1,1.226.442l-.263.357a1.555,1.555,0,0,0-.962-.374c-.585,0-.853.329-.853.676,0,.433.469.6.947.778.617.233,1.3.459,1.3,1.254,0,.644-.51,1.19-1.444,1.19A2.406,2.406,0,0,1,787.045,848.563Z" transform="translate(-646.38 -842.489)" fill="#878787"/></g></g></g></g></svg>