<svg xmlns="http://www.w3.org/2000/svg" width="58.282" height="15.876" viewBox="0 0 58.282 15.876"><g transform="translate(-1499.615 -979.565)"><g transform="translate(1499.615 979.565)"><path d="M1512.68,1027.767a.606.606,0,0,0-.606.606h0c0,.342.884.607,1.227.607h.606c.342,0,1.227-.28,1.227-.607a.606.606,0,0,0-.606-.606h-1.848Z" transform="translate(-1507.492 -1013.104)" fill="#707070"/><path d="M1498.175,986.332l-.87-6.819a1.229,1.229,0,0,1,1.227-1.227h7.611a1.23,1.23,0,0,1,1.227,1.227l-.855,6.819a1.23,1.23,0,0,1-1.227,1.227H1499.4a1.22,1.22,0,0,1-1.227-1.212v-.015m-.948-10a1.22,1.22,0,0,0-1.227,1.213v.014l.606,9.77a1.23,1.23,0,0,0,1.227,1.227h8.558a1.23,1.23,0,0,0,1.228-1.227l.606-9.77a1.23,1.23,0,0,0-1.229-1.227Z" transform="translate(-1496 -976.329)" fill="#707070"/><path d="M1507.34,1021.337a.606.606,0,0,0-.606.606h0c0,.342,1.693.606,2.035.606h2.034c.342,0,2.035-.28,2.035-.606a.606.606,0,0,0-.606-.606h-4.891Z" transform="translate(-1503.674 -1008.507)" fill="#707070"/><path d="M1514.938,993.89h1.786v-1.646h-1.786Zm-.031-6.99v2.346l.186,2.547h1.476l.186-2.547V986.9Z" transform="translate(-1509.517 -983.887)" fill="#707070"/></g><text transform="translate(1515.897 991.565)" fill="#707070" font-size="11" font-family="Muli-Regular, Muli"><tspan x="0" y="0">nova</tspan><tspan y="0" font-family="Muli-Black, Muli" font-weight="800">m3</tspan></text></g></svg>